<svg xmlns="http://www.w3.org/2000/svg" xmlns:xlink="http://www.w3.org/1999/xlink" width="1500" height="90">
    <symbol id="a">
        <path fill-rule="evenodd"
              d="M12 13.6L10.5 9l.3-.2 3.6-2.5H9.6L8 1.7 6.4 6.4H1.6L5.5 9l-.1.4L4 13.6l4-2.8 4 2.8z"/>
    </symbol>
    <symbol id="b">
        <g fill-rule="evenodd">
            <path
                d="M12.393 5.394l1.28-1.195-2.022-2.746L9.34.5H4.985l-2.714.955L.638 4.171l1.318 1.223 1.55-1.27V11.5h7.006V3.86l1.881 1.534z"/>
            <path d="M4.072.792l2.966 1.943L9.969.792"/>
        </g>
    </symbol>
    <symbol id="c">
        <g fill-rule="evenodd">
            <path
                d="M5.8 4.6l.1.1.1.1s.1.1.2.1.1 0 .2.1h.4c.1 0 .1 0 .1-.1.1 0 .1-.1.2-.1l.1-.1.1-.1.1-.1c0-.1 0-.1.1-.2v-.4c0-.1 0-.1-.1-.2 0-.1-.1-.2-.2-.2l-.1-.1c-.1 0-.1-.1-.1-.1-.1 0-.1 0-.2-.1h-.4c-.1 0-.1 0-.2.1s-.1.1-.2.1l-.1.1-.1.1-.1.1s0 .1-.1.2v.4c0 .1 0 .2.1.2s.1.1.1.1zM7 10V6.3c0-.1-.1-.3-.3-.3H5.3c-.1 0-.3.2-.3.3v.3c0 .2.2.4.3.4H6v3h-.7c-.1 0-.3.1-.3.3v.3c0 .3.2.4.3.4h2c.2 0 .3-.1.3-.3v-.3c0-.2-.1-.3-.3-.3 0-.1-.3-.1-.3-.1z"/>
            <path
                d="M6.5 13.5C2.9 13.5 0 10.6 0 7S2.9.5 6.5.5 13 3.4 13 7s-2.9 6.5-6.5 6.5zm0-12C3.5 1.5 1 4 1 7s2.5 5.5 5.5 5.5S12 10 12 7 9.5 1.5 6.5 1.5z"/>
        </g>
    </symbol>
    <symbol id="d">
        <g fill-rule="evenodd">
            <rect width="12" height="8" x=".5" y=".5" rx="1"/>
            <path d="M6 9.5h1v1H6zm-3.969 1.005h8.921"/>
        </g>
    </symbol>
    <symbol id="e">
        <g fill-rule="evenodd">
            <path
                d="M1.5 15C.7 15 0 14.4 0 13.5V3c0-.8.7-1.5 1.5-1.5h12.1c.4 0 .7.2 1 .4.3.3.4.7.4 1.1v10.5c0 .8-.7 1.5-1.5 1.5h-12zm-.1-8v6.5c0 .1 0 .1.1.1h12c.1 0 .1 0 .1-.1V7H1.4zm0-1.6h12.2V3h-.1l-.1-.1H1.5c-.1 0-.1 0-.1.1v2.4z"/>
            <path
                d="M3.2.6c0-.3.2-.6.5-.6s.6.3.6.6V4c0 .3-.2.6-.6.6-.3 0-.6-.3-.6-.6.1-.1.1-3.4.1-3.4zm3.7 0c0-.3.3-.6.6-.6s.6.3.6.6V4c0 .3-.2.6-.6.6-.3 0-.6-.3-.6-.6V.6zm3.8 0c0-.3.3-.6.6-.6s.6.3.6.6V4c0 .3-.2.6-.6.6-.3 0-.6-.3-.6-.6V.6zM4.5 8.7H6v1.1H4.5V8.7zm2.3 0h1.5v1.1H6.8V8.7zm2.2 0h1.5v1.1H9V8.7zm2.3 0h1.5v1.1h-1.5V8.7zm-9 2.2h1.5V12H2.3v-1.1zm2.2 0H6V12H4.5v-1.1zm2.3 0h1.5V12H6.8v-1.1zm2.2 0h1.5V12H9v-1.1z"/>
        </g>
    </symbol>
    <symbol id="f">
        <path
            d="M3.9 13H0V7.2h3.5V5.9H0V0h3.9v2.6h2v3.6h1.3V3.9h3.9v5.8H7.2V7.2H5.9v3.2h-2V13zM1 12h1.9V8.1H1V12zm3.5-2.6h.4V3.6h-.4v5.8zm3.6-.6H10V4.9H8.1v3.9zM1 4.9h1.9V1H1v3.9z"/>
    </symbol>
    <symbol id="g">
        <path d="M12.2 11.6h-8v-1h8v1zm0-4.6h-8V6h8v1zm0-4.5h-8v-1h8v1z"/>
        <path fill-rule="evenodd" clip-rule="evenodd"
              d="M2 3.8h-.9V1l-.9.2V.6L1.9 0H2v3.8zm.7 4.6H.1v-.5l1.2-1.3c.3-.3.4-.6.4-.8 0-.2 0-.3-.1-.4 0 0-.1-.1-.3-.1-.1 0-.2.1-.3.2-.1.1-.1.3-.1.4H0c0-.5.2-.9.6-1.1.2-.1.4-.2.7-.2.4 0 .7.1.9.3.2.2.3.5.3.8 0 .1 0 .3-.1.4.1.2 0 .4-.1.5-.2.2-.3.4-.6.6l-.5.6h1.5v.6zM.9 10.8h.4c.3 0 .5-.2.5-.5 0-.1 0-.2-.1-.3-.1-.1-.2-.1-.4-.1-.1 0-.2 0-.3.1-.1.1-.1.1-.1.2H.1c0-.2.1-.4.2-.5.1-.2.3-.3.4-.4.2-.1.4-.1.6-.1.4 0 .7.1 1 .3.2.2.3.4.3.8 0 .2 0 .3-.1.4-.1.2-.3.3-.5.4.2.1.3.2.5.3.1.1.2.3.2.5 0 .3-.1.6-.4.8-.3.2-.6.3-1 .3-.2 0-.5 0-.7-.1-.2-.1-.4-.2-.5-.4 0-.2-.1-.4-.1-.6h.9c0 .1 0 .2.1.3.1.1.2.1.3.1.1 0 .3 0 .4-.1.1-.1.1-.2.1-.3 0-.2 0-.3-.1-.4-.1-.1-.2-.1-.4-.1H.9v-.6z"/>
    </symbol>
    <symbol id="j">
        <rect width="10" height="10" x=".5" y=".5" rx="2"/>
        <path d="M5.505 8.995V2.532m2.524 2.692L5.13 2.354M2.996 5.187l2.84-2.828"/>
    </symbol>
    <symbol id="h">
        <path d="M5 10H2.9V4L1.5 5.5 0 4l4-4 3.9 4-1.4 1.5L5 4z"/>
    </symbol>
    <symbol id="i">
        <path d="M4 10L0 6l1.5-1.5L2.9 6V0H5v6l1.5-1.5L7.9 6z"/>
    </symbol>
    <symbol id="k">
        <path d="M3.141 5.285l4.4-4.4L8.798 2.14l-4.4 4.4-1.256 1.257L0 4.657 1.257 3.4 3.14 5.285z"/>
    </symbol>
    <symbol id="l">
        <path d="M.5 4.5h3v4h-3zm3-.253v4.509l4 3.203V1.041l-4 3.206z"/>
        <path stroke-width="1.5" d="M11.965 3.074c1.63 2.279 1.63 4.589 0 6.93M14.6 1c2.587 3.616 2.587 7.283 0 11"/>
    </symbol>
    <symbol id="m">
        <path d="M.5 4.5h3v4h-3zm3-.253v4.509l4 3.203V1.041l-4 3.206z"/>
        <path stroke-width="1.5" d="M11.01 3.07l6.984 6.983m0-6.983l-6.983 6.983"/>
    </symbol>
    <use xlink:href="#a" fill="none" stroke="#9C9C9C"/>
    <use xlink:href="#a" fill="#F2B142" stroke="#F2B142" y="30"/>
    <use xlink:href="#b" fill="none" stroke="#8F8F8F" x="30"/>
    <use xlink:href="#c" fill="#8F8F8F" x="60"/>
    <use xlink:href="#d" fill="none" stroke="#8F8F8F" x="90"/>
    <use xlink:href="#e" fill="#FFF" x="120"/>
    <use xlink:href="#e" fill="#656565" x="120" y="30"/>
    <use xlink:href="#f" fill="gray" x="150"/>
    <use xlink:href="#f" fill="#D8232A" x="150" y="30"/>
    <use xlink:href="#g" fill="gray" x="180"/>
    <use xlink:href="#g" fill="#D8232A" x="180" y="30"/>
    <use xlink:href="#h" fill="#3FBD40" x="210"/>
    <use xlink:href="#i" fill="#D42E2F" x="210" y="30"/>
    <use xlink:href="#j" fill="none" stroke="#8F8F8F" x="240"/>
    <use xlink:href="#k" fill="#FFF" x="270"/>
    <use xlink:href="#l" fill="none" stroke="#656565" x="300"/>
    <use xlink:href="#m" fill="none" stroke="#cbcbcb" x="300" y="30"/>
</svg>
